<svg width="153" height="153" viewBox="0 0 153 153" fill="none" xmlns="http://www.w3.org/2000/svg">
<path d="M93.209 11.2451L93.3584 11.3369L93.5342 11.332L113.691 10.7861L123.297 28.5156L123.381 28.6709L123.535 28.7539L141.265 38.3594L140.719 58.5166L140.714 58.6924L140.806 58.8418L151.357 76.0254L140.806 93.209L140.714 93.3584L140.719 93.5342L141.265 113.69L123.535 123.297L123.381 123.381L123.297 123.535L113.69 141.265L93.5342 140.719L93.3584 140.714L93.209 140.806L76.0254 151.357L58.8418 140.806L58.6924 140.714L58.5166 140.719L38.3594 141.265L28.7539 123.535L28.6709 123.381L28.5156 123.297L10.7861 113.691L11.332 93.5342L11.3369 93.3584L11.2451 93.209L0.693359 76.0254L11.2451 58.8418L11.3369 58.6924L11.332 58.5166L10.7861 38.3584L28.5156 28.7539L28.6709 28.6709L28.7539 28.5156L38.3584 10.7861L58.5166 11.332L58.6924 11.3369L58.8418 11.2451L76.0254 0.693359L93.209 11.2451Z" fill="#D9D9D9" stroke="black" stroke-width="1.18182"/>
<path d="M90.0986 18.9961L91.1299 19.627L92.3379 19.5938L108.843 19.1484L116.706 33.5957L117.285 34.6611L118.354 35.2373L132.859 43.0605L132.413 59.4727L132.38 60.6895L133.02 61.7266L141.646 75.7139L133.02 89.7021L132.38 90.7383L132.413 91.9561L132.859 108.366L118.354 116.191L117.285 116.767L116.706 117.833L108.844 132.278L92.3379 131.834L91.1299 131.801L90.0986 132.432L76.0254 141.035L61.9521 132.432L60.9209 131.801L59.7129 131.834L43.2061 132.278L35.3457 117.833L34.7656 116.767L33.6982 116.191L19.1904 108.366L19.6377 91.9561L19.6709 90.7383L19.0322 89.7021L10.4043 75.7139L19.0322 61.7266L19.6709 60.6895L19.6377 59.4727L19.1904 43.0605L33.6982 35.2373L34.7656 34.6611L35.3457 33.5957L43.207 19.1484L59.7129 19.5938L60.9209 19.627L61.9521 18.9961L76.0254 10.3916L90.0986 18.9961Z" fill="white" stroke="black" stroke-width="8.16382"/>
<path d="M46.9329 87.0523C46.9887 87.2883 46.8386 87.5315 46.4824 87.7818C46.1463 87.9997 45.6891 88.2323 45.1108 88.4798C44.5325 88.7272 43.8855 88.977 43.1699 89.2292C42.4743 89.449 41.8019 89.6495 41.1525 89.8307C40.5032 90.0118 39.9194 90.1775 39.4011 90.3277C38.8767 90.4517 38.5096 90.5384 38.2998 90.588C38.0376 90.65 37.5001 90.7771 36.6872 90.9692C35.8681 91.1351 35.0035 91.2841 34.0934 91.4162C33.2095 91.542 32.405 91.5938 31.6798 91.5714C30.9485 91.5227 30.5394 91.3149 30.4526 90.9478C30.3473 90.502 30.6307 90.0612 31.3029 89.6255C32.0014 89.1835 32.8233 88.7954 33.7687 88.4612C34.7342 88.0946 35.6858 87.7866 36.6235 87.5373C37.5875 87.2817 38.2924 87.1013 38.7382 86.9959C39.0004 86.9339 39.3706 86.8602 39.8488 86.7749C40.3532 86.6834 40.89 86.6119 41.4593 86.5604C42.0486 86.4764 42.6571 86.4157 43.285 86.378C43.9129 86.3403 44.4784 86.3313 44.9813 86.3508C45.5105 86.3642 45.9542 86.4254 46.3122 86.5346C46.6703 86.6438 46.8772 86.8164 46.9329 87.0523ZM66.3803 83.4108C66.7274 84.8792 66.7582 86.2978 66.4726 87.6666C66.1871 89.0353 65.6676 90.2933 64.9144 91.4403C64.1549 92.5612 63.1916 93.5226 62.0245 94.3245C60.8636 95.1526 59.5883 95.7309 58.1985 96.0594C57.6741 96.1834 57.0062 96.2859 56.1947 96.367C55.4157 96.468 54.6412 96.4711 53.8712 96.3763C53.1013 96.2814 52.4145 96.07 51.8109 95.7419C51.2074 95.4139 50.8219 94.8959 50.6546 94.188C50.4748 93.4275 50.532 92.7911 50.8262 92.2785C51.1466 91.7598 51.687 91.4106 52.4474 91.2309C53.2078 91.0511 53.9606 90.9562 54.7058 90.9462C55.471 90.9038 56.2338 90.7927 56.9942 90.613C57.5711 90.4766 58.1263 90.2485 58.6598 89.9286C59.1933 89.6087 59.6426 89.2256 60.0078 88.7793C60.393 88.3007 60.6741 87.7913 60.8509 87.2511C61.0216 86.6847 61.0326 86.0868 60.8838 85.4575C60.8032 85.1166 60.6385 84.7126 60.3897 84.2454C60.1408 83.7781 59.8488 83.3627 59.5136 82.9989C59.1722 82.6089 58.7939 82.2969 58.3787 82.0628C57.9634 81.8287 57.546 81.7612 57.1265 81.8604C56.7332 81.9534 56.3553 82.1119 55.993 82.336C55.6569 82.5539 55.2976 82.791 54.9153 83.0475C54.5529 83.2716 54.1775 83.4988 53.7889 83.7291C53.4004 83.9593 52.9832 84.1272 52.5375 84.2325C51.9606 84.3689 51.4721 84.2352 51.0721 83.8314C50.6922 83.3951 50.4464 82.941 50.3348 82.469C50.0745 81.3677 50.3961 80.5026 51.2995 79.8738C51.7744 79.5401 52.3648 79.1098 53.0709 78.583C53.797 78.0237 54.4845 77.4182 55.1334 76.7665C55.7822 76.1148 56.3138 75.4354 56.7281 74.7284C57.1362 73.9951 57.2597 73.2876 57.0985 72.6058C56.9746 72.0814 56.6439 71.6197 56.1066 71.2206C55.5693 70.8216 55.0122 70.6902 54.4354 70.8266C53.8585 70.9629 53.3581 71.2473 52.9343 71.6797C52.5105 72.1122 52.0959 72.5839 51.6907 73.095C51.3055 73.5737 50.8878 74.0323 50.4378 74.4709C50.0139 74.9034 49.5136 75.1877 48.9367 75.3241C48.6483 75.3923 48.3343 75.4111 47.9949 75.3806C47.6492 75.3239 47.3236 75.2347 47.018 75.1131C46.7062 74.9653 46.4244 74.7689 46.1727 74.5239C45.9472 74.2726 45.7972 73.9897 45.7229 73.675C45.6361 73.3079 45.6249 72.9091 45.6893 72.4786C45.7536 72.0481 45.8566 71.6638 45.9982 71.3258C46.5674 69.7515 47.5057 68.45 48.8129 67.4211C50.1464 66.3861 51.5998 65.6826 53.1731 65.3107C55.5855 64.7405 57.6546 64.9436 59.3805 65.92C61.1326 66.8902 62.2907 68.5684 62.8547 70.9545C63.1894 72.3705 63.1822 73.6873 62.8332 74.905C62.5105 76.1164 61.6969 77.1255 60.3925 77.9321C61.1901 77.9097 61.9169 78.0563 62.5729 78.3719C63.249 78.6551 63.8418 79.0549 64.3515 79.5712C64.8611 80.0875 65.2783 80.6811 65.603 81.3519C65.9539 82.0165 66.213 82.7028 66.3803 83.4108ZM90.5626 72.9189C90.9841 74.702 91.1333 76.5632 91.0103 78.5027C90.9074 80.4097 90.505 82.2214 89.8032 83.9377C89.1215 85.6216 88.1124 87.0922 86.7761 88.3494C85.4459 89.6328 83.7713 90.5132 81.7522 90.9904C80.0478 91.3933 78.4085 91.3101 76.8343 90.7409C75.26 90.1716 73.8266 89.3199 72.5341 88.1857C71.2617 87.0191 70.1711 85.6849 69.2624 84.1831C68.3737 82.6489 67.7496 81.1214 67.3901 79.6005C67.136 78.5254 67.0137 77.3638 67.0232 76.1157C67.0328 74.8675 67.1634 73.6046 67.4151 72.3269C67.693 71.043 68.0752 69.7898 68.5614 68.5674C69.0678 67.3126 69.6868 66.1834 70.4186 65.1798C71.1705 64.1438 72.0282 63.2627 72.9917 62.5366C73.9814 61.8043 75.0663 61.2987 76.2463 61.0198C78.2653 60.5426 80.072 60.5724 81.6663 61.1092C83.2606 61.646 84.6415 62.5101 85.8091 63.7015C86.9967 64.8605 87.9786 66.2619 88.7548 67.9058C89.5509 69.5172 90.1536 71.1883 90.5626 72.9189ZM84.8129 74.0703C84.658 73.4147 84.3834 72.6629 83.9891 71.8148C83.5948 70.9666 83.108 70.1957 82.5288 69.502C81.9757 68.8021 81.3326 68.2481 80.5993 67.84C79.8661 67.4319 79.0799 67.3271 78.2408 67.5254C77.2182 67.7671 76.3779 68.3118 75.72 69.1595C75.0821 69.9748 74.5994 70.9194 74.2718 71.9936C73.9443 73.0677 73.7503 74.1795 73.6897 75.329C73.6554 76.4722 73.7405 77.4765 73.945 78.3419C74.1062 79.0236 74.3808 79.7755 74.7689 80.5974C75.157 81.4193 75.6406 82.1771 76.2199 82.8708C76.793 83.5383 77.4461 84.076 78.1794 84.4841C78.9327 84.8598 79.7289 84.9485 80.5679 84.7502C81.5906 84.5084 82.4209 83.9799 83.0588 83.1647C83.7167 82.317 84.1994 81.3723 84.5069 80.3306C84.8344 79.2565 85.0185 78.1609 85.059 77.0438C85.0933 75.9006 85.0113 74.9094 84.8129 74.0703ZM119.265 80.6701C118.242 80.9118 117.282 80.8341 116.386 80.437C115.509 80.0074 114.719 79.4189 114.016 78.6713C113.334 77.8914 112.76 77.0442 112.294 76.1298C111.823 75.1891 111.494 74.3255 111.308 73.5388C111.116 72.7259 111.034 71.7348 111.062 70.5653C111.116 69.3896 111.317 68.2485 111.665 67.1419C112.012 66.0354 112.512 65.0451 113.164 64.1712C113.842 63.2911 114.705 62.7271 115.754 62.4792C116.934 62.2003 117.975 62.2725 118.878 62.6959C119.775 63.093 120.552 63.6847 121.208 64.4708C121.865 65.257 122.393 66.1428 122.792 67.1283C123.217 68.1075 123.532 69.0298 123.736 69.8951C123.953 70.8129 124.058 71.8403 124.05 72.9774C124.068 74.1082 123.91 75.1976 123.576 76.2455C123.269 77.2873 122.77 78.222 122.079 79.0496C121.383 79.851 120.445 80.3912 119.265 80.6701ZM112.632 59.8118C112.339 60.6838 112.031 61.5457 111.706 62.3977C111.408 63.2435 111.113 64.0468 110.822 64.8077C110.558 65.5624 110.304 66.2454 110.061 66.8566C109.838 67.4354 109.658 67.9069 109.523 68.2711C109.401 68.5767 109.222 69.0482 108.985 69.6857C108.742 70.2969 108.455 71.0154 108.124 71.8411C107.82 72.6606 107.465 73.5612 107.06 74.5429C106.675 75.4921 106.278 76.4444 105.867 77.3999C105.449 78.3291 105.032 79.2583 104.615 80.1875C104.218 81.0843 103.815 81.8993 103.407 82.6325C102.999 83.3658 102.616 83.9686 102.257 84.4411C101.898 84.9136 101.587 85.1808 101.325 85.2428C100.958 85.3296 100.688 85.2411 100.515 84.9775C100.374 84.7339 100.288 84.5465 100.257 84.4154C100.139 83.9172 100.155 83.2213 100.304 82.3279C100.472 81.402 100.704 80.392 100.999 79.2979C101.315 78.1713 101.686 76.9899 102.114 75.7536C102.541 74.5174 102.955 73.3398 103.355 72.2209C103.775 71.0695 104.164 70.0223 104.523 69.0793C104.901 68.1038 105.192 67.3429 105.395 66.7965C105.531 66.4323 105.768 65.7949 106.106 64.8843C106.471 63.9675 106.889 62.9272 107.362 61.7634C107.834 60.5996 108.337 59.3872 108.869 58.1262C109.428 56.859 109.985 55.7028 110.541 54.6578C111.091 53.5865 111.612 52.6881 112.105 51.9624C112.598 51.2368 113.028 50.8306 113.395 50.7438C113.736 50.6633 113.974 50.7317 114.108 50.9491C114.269 51.1603 114.368 51.3445 114.405 51.5019C114.486 51.8428 114.486 52.3133 114.407 52.9136C114.347 53.4814 114.227 54.1464 114.048 54.9088C113.888 55.6387 113.675 56.4366 113.409 57.3023C113.163 58.1357 112.904 58.9722 112.632 59.8118ZM98.6837 73.3665C97.6611 73.6083 96.6983 73.5174 95.7953 73.0941C94.9185 72.6645 94.1288 72.076 93.426 71.3284C92.7495 70.5747 92.1655 69.7437 91.6739 68.8355C91.2024 67.8948 90.8737 67.0312 90.6878 66.2445C90.4894 65.4054 90.4074 64.4143 90.4417 63.271C90.4961 62.0953 90.697 60.9542 91.0446 59.8476C91.4122 58.7087 91.9249 57.7153 92.5828 56.8676C93.2608 55.9875 94.1373 55.4204 95.2124 55.1663C96.3923 54.8874 97.4207 54.9627 98.2975 55.3923C99.1943 55.7894 99.9709 56.3811 100.627 57.1672C101.278 57.9272 101.805 58.813 102.211 59.8247C102.636 60.8039 102.951 61.7262 103.155 62.5915C103.372 63.5093 103.477 64.5367 103.469 65.6738C103.487 66.8047 103.329 67.894 102.995 68.942C102.688 69.9837 102.189 70.9184 101.499 71.746C100.802 72.5474 99.8637 73.0876 98.6837 73.3665ZM117.059 66.9467C116.587 67.0582 116.198 67.344 115.891 67.8041C115.611 68.258 115.402 68.7781 115.263 69.3645C115.125 69.951 115.062 70.5612 115.073 71.1953C115.078 71.8032 115.137 72.3431 115.248 72.8151C115.335 73.1822 115.474 73.5924 115.664 74.0458C115.854 74.4992 116.091 74.914 116.373 75.2902C116.656 75.6663 116.966 75.9807 117.302 76.2334C117.659 76.4537 118.021 76.5204 118.388 76.4337C118.86 76.3221 119.236 76.0394 119.516 75.5855C119.797 75.1316 120.006 74.6115 120.144 74.0251C120.283 73.4387 120.349 72.8415 120.344 72.2336C120.332 71.5996 120.274 71.0596 120.169 70.6139C120.088 70.273 119.939 69.8789 119.723 69.4317C119.527 68.9521 119.287 68.5242 119.004 68.1481C118.742 67.7395 118.432 67.4251 118.075 67.2048C117.739 66.9521 117.4 66.8661 117.059 66.9467ZM96.4689 59.6037C95.9969 59.7153 95.6076 60.0011 95.3011 60.4612C95.0207 60.9151 94.8114 61.4352 94.6732 62.0216C94.5349 62.608 94.4715 63.2183 94.483 63.8524C94.4882 64.4602 94.5466 65.0002 94.6582 65.4722C94.745 65.8393 94.8835 66.2495 95.0737 66.7029C95.2901 67.1501 95.5297 67.578 95.7924 67.9866C96.0751 68.3627 96.3848 68.6772 96.7214 68.9298C97.078 69.1501 97.453 69.2137 97.8463 69.1208C98.3183 69.0092 98.6944 68.7265 98.9748 68.2726C99.2551 67.8187 99.4513 67.3017 99.5633 66.7215C99.7016 66.1351 99.7681 65.5379 99.7628 64.9301C99.7514 64.296 99.693 63.756 99.5876 63.3103C99.5008 62.9432 99.3623 62.5329 99.1721 62.0795C98.9757 61.5999 98.7361 61.172 98.4534 60.7959C98.1645 60.3935 97.8548 60.0791 97.5244 59.8526C97.1878 59.5999 96.836 59.517 96.4689 59.6037Z" fill="black"/>
</svg>
