<svg width="808" height="191" viewBox="0 0 808 191" fill="none" xmlns="http://www.w3.org/2000/svg">
<path d="M169.5 132.5C81.5 107.3 18.5 159.667 -2 189V0.5H597C568.038 15.4142 529.503 33.938 487 52.4625C374.187 101.631 233.418 150.804 169.5 132.5Z" fill="#744125"/>
<path d="M597 0.5C568.038 15.4142 529.503 33.938 487 52.4625C494.6 71.6325 703.833 25.8083 807.5 0.5H597Z" fill="#E3C2A1"/>
<path d="M597 0.5H-2V189C18.5 159.667 81.5 107.3 169.5 132.5C233.418 150.804 374.187 101.631 487 52.4625M597 0.5C568.038 15.4142 529.503 33.938 487 52.4625M597 0.5L487 52.4625M597 0.5H807.5C703.833 25.8083 494.6 71.6325 487 52.4625" stroke="#461801"/>
</svg>
