<svg width="249" height="1517" viewBox="0 0 249 1517" fill="none" xmlns="http://www.w3.org/2000/svg">
<path d="M243.405 178.317C234.755 189.191 198.185 241.184 190.404 251.317C172.355 274.823 184.961 254.896 171.282 274.817C75.3456 414.535 81.677 473.006 117.005 547.317C131.08 576.923 149.758 609.043 168.405 649.817C228.405 781.017 193.405 907.15 168.405 953.817C168.129 954.807 167.852 955.811 167.573 956.83C142.644 1048.13 109.067 1255.81 168.405 1380.82C181.906 1409.26 193.128 1431.72 202.414 1449.32C234.396 1509.93 243.405 1512.86 243.405 1503.82L243.405 178.317Z" fill="#CCA276" fill-opacity="0.77"/>
<path d="M168.405 953.817C193.405 907.15 228.405 781.017 168.404 649.817C149.758 609.043 131.08 576.923 117.005 547.317C74.8721 612.317 15.8858 773.017 117.005 895.817C139.753 923.442 156.133 943.185 167.573 956.83C167.851 955.811 168.129 954.807 168.405 953.817Z" fill="#744125" fill-opacity="0.75"/>
<path d="M190.404 251.317C198.185 241.184 234.755 189.192 243.405 178.317C245.071 87.9839 278.621 -62.0102 243.405 27.8172C208.904 115.817 196.95 230.817 190.404 251.317Z" fill="#91674F"/>
</svg>
